<?xml version="1.0" encoding="utf-8"?>
<!-- Generator: Adobe Illustrator 20.1.0, SVG Export Plug-In . SVG Version: 6.00 Build 0)  -->
<svg version="1.1" id="Layer_1" xmlns="http://www.w3.org/2000/svg" xmlns:xlink="http://www.w3.org/1999/xlink" x="0px" y="0px"
	 viewBox="0 0 195 66" style="enable-background:new 0 0 195 66;" xml:space="preserve">
<style type="text/css">
	.st0{fill:#2E2A25;}
	.st1{fill:#0082CD;}
	.st2{fill:#80BD00;}
	.st3{fill:#003865;}
</style>
<g>
	<path class="st0" d="M100.4,45c-0.7-3.9-2.6-7-6-9c-2.6-1.5-5.8-1.9-9-1c-6.5,1.9-9.7,8.6-8,14.8c1.7,6,8,10,14.7,8.1
		c2.2-0.6,4.2-1.9,5.6-3.6c1.5-1.7,2.5-4,2.8-6.7l-5.3,1.5c-0.5,2-1.8,3.7-4.4,4.4c-2.9,0.9-6.5-0.2-7.8-3.5L100.4,45z M82,46
		c-0.4-2.1,0.9-5.5,4.7-6.6c3.7-1.1,6.7,1.1,7.5,3.1L82,46z"/>
	<path class="st0" d="M139.1,45c-0.7-3.9-2.6-7-6-9c-2.6-1.5-5.8-1.9-9-1c-6.5,1.9-9.7,8.6-8,14.8c1.7,6,8,10,14.7,8.1
		c2.2-0.6,4.2-1.9,5.6-3.6c1.5-1.7,2.5-4,2.8-6.7l-5.3,1.5c-0.5,2-1.8,3.7-4.4,4.4c-2.9,0.9-6.5-0.2-7.8-3.5L139.1,45z M120.7,46
		c-0.4-2.1,0.9-5.5,4.7-6.6c3.7-1.1,6.7,1.1,7.5,3.1L120.7,46z"/>
	<polygon class="st0" points="138.9,57.9 145.4,57.9 150.5,50.2 155.5,57.9 162.1,57.9 153.7,46.1 161.2,35.5 154.8,35.5 
		150.5,42.4 146.1,35.5 139.7,35.5 147.2,46.1 	"/>
	<path class="st0" d="M64,46.5c0,5.8-4.2,11.9-12,11.9c-2.6,0-4.8-0.7-6.6-1.8v9.2h-5.4V47.6c0-0.3,0-0.7,0-1v0
		c0-5.7,4.2-11.8,12-11.8C59.8,34.7,64,40.8,64,46.5 M58.7,46.5c0-4-3-6.9-6.6-6.9c-3.6,0-6.5,2.8-6.6,6.6h0v1.1
		c0.4,3.5,3.2,6,6.6,6C55.7,53.3,58.7,50.4,58.7,46.5"/>
	<polygon class="st0" points="72.6,27.5 72.5,27.5 67.7,27.5 67.7,32.2 67.7,32.3 67.7,57.7 68.1,57.7 68.3,57.7 73.1,57.7 73.1,53 
		73.1,52.9 73.1,52.9 73.1,27.5 	"/>
	<path class="st0" d="M29.7,35.3h5.4v22.4h-5.4V35.3z M32.3,32.1c1.6,0,3-1.3,3-3c0-1.6-1.3-3-3-3c-1.6,0-3,1.3-3,3
		C29.3,30.7,30.7,32.1,32.3,32.1"/>
	<path class="st0" d="M17.6,46.3L17.6,46.3c0.1-3.9,3.1-6.7,6.7-6.7c0.4,0,0.9,0,1.3,0.1v-5.1c-0.4,0-0.8-0.1-1.3-0.1
		c-7.9,0-12.2,6.2-12.2,12v0c0,0.3,0,0.7,0,1v10.1h5.4L17.6,46.3z"/>
	<polygon class="st0" points="10.9,34.4 5.4,34.4 5.4,27.5 0,27.5 0,57.7 5.4,57.7 5.4,39.8 10.9,39.8 	"/>
	<polygon class="st0" points="114.8,34.4 109.2,34.4 109.2,27.5 103.9,27.5 103.9,57.7 109.2,57.7 109.2,39.8 114.8,39.8 	"/>
	<path class="st1" d="M187.5,28.8c-1.9,0-3.9-0.7-5.3-2.2c-3-3-3-7.7,0-10.7c1.5-1.5,3.4-2.2,5.3-2.2c1.9,0,3.9,0.7,5.4,2.2
		c1.3,1.3,2,3,2.2,4.7h-7.2v1.2h7.2c-0.1,1.7-0.9,3.4-2.2,4.7C191.3,28.1,189.4,28.8,187.5,28.8"/>
	<path class="st2" d="M174.5,42.3v-7.2h-1.2v7.2c-1.7-0.1-3.4-0.9-4.7-2.2c-3-3-3-7.7,0-10.7c1.5-1.5,3.4-2.2,5.3-2.2
		c1.9,0,3.9,0.7,5.4,2.2c3,3,3,7.7,0,10.7C178,41.5,176.3,42.2,174.5,42.3"/>
	<path class="st3" d="M173.8,15.1L173.8,15.1c-4.2,0-7.6-3.4-7.6-7.6c0-4.2,3.4-7.6,7.6-7.6c1.9,0,3.6,0.7,4.9,1.8l-5.1,5.1l0.9,0.9
		l5.1-5.1c1.1,1.3,1.8,3,1.8,4.9C181.4,11.7,178,15.1,173.8,15.1"/>
</g>
</svg>
